<mxfile host="Electron" modified="2024-02-06T04:20:15.907Z" agent="Mozilla/5.0 (X11; Linux x86_64) AppleWebKit/537.36 (KHTML, like Gecko) draw.io/22.1.21 Chrome/120.0.6099.109 Electron/28.1.0 Safari/537.36" etag="ElOpn9_CtVh4OAhALxvK" version="22.1.21" type="device">
  <diagram name="Page-1" id="UgkzKDdlbD2YLOSZ790F">
    <mxGraphModel dx="1199" dy="1296" grid="1" gridSize="10" guides="1" tooltips="1" connect="1" arrows="1" fold="1" page="1" pageScale="1" pageWidth="850" pageHeight="1100" math="0" shadow="0">
      <root>
        <mxCell id="0" />
        <mxCell id="1" parent="0" />
        <mxCell id="N9ySa-mEWaRBu_4OoYGM-2" value="" style="group;fillColor=#232136;strokeColor=#232136;strokeWidth=26;" vertex="1" connectable="0" parent="1">
          <mxGeometry x="935" y="20" width="673.1300000000001" height="490" as="geometry" />
        </mxCell>
        <mxCell id="ultGdkTZjcFe20rOqxWl-29" value="&lt;font&gt;1&lt;/font&gt;" style="text;html=1;strokeColor=none;fillColor=none;align=center;verticalAlign=middle;whiteSpace=wrap;rounded=0;fontSize=11;fontFamily=Helvetica;fontColor=#FFFFFF;" parent="N9ySa-mEWaRBu_4OoYGM-2" vertex="1">
          <mxGeometry x="309" y="357.39" width="60" height="30" as="geometry" />
        </mxCell>
        <mxCell id="ultGdkTZjcFe20rOqxWl-34" value="&lt;font&gt;Has&lt;/font&gt;" style="text;html=1;strokeColor=none;fillColor=none;align=center;verticalAlign=middle;whiteSpace=wrap;rounded=0;fontSize=11;fontFamily=Helvetica;fontColor=#FFFFFF;" parent="N9ySa-mEWaRBu_4OoYGM-2" vertex="1">
          <mxGeometry x="285" y="343" width="60" height="30" as="geometry" />
        </mxCell>
        <mxCell id="ultGdkTZjcFe20rOqxWl-24" value="&lt;font&gt;1&lt;/font&gt;" style="text;html=1;strokeColor=none;fillColor=none;align=center;verticalAlign=middle;whiteSpace=wrap;rounded=0;fontSize=11;fontFamily=Helvetica;fontColor=#FFFFFF;" parent="N9ySa-mEWaRBu_4OoYGM-2" vertex="1">
          <mxGeometry x="210" y="134.26999999999998" width="65" height="30" as="geometry" />
        </mxCell>
        <mxCell id="ultGdkTZjcFe20rOqxWl-25" value="&lt;font&gt;Has a root&lt;/font&gt;" style="text;html=1;strokeColor=none;fillColor=none;align=center;verticalAlign=middle;whiteSpace=wrap;rounded=0;fontSize=11;fontFamily=Helvetica;fontColor=#FFFFFF;" parent="N9ySa-mEWaRBu_4OoYGM-2" vertex="1">
          <mxGeometry x="194.25" y="156.26999999999998" width="60" height="30" as="geometry" />
        </mxCell>
        <mxCell id="6oxuOz3wnvCVODKfcnTl-1" value="&lt;p style=&quot;margin:0px;margin-top:4px;text-align:center;&quot;&gt;&lt;font&gt;&lt;b style=&quot;background-color: initial;&quot;&gt;&lt;i&gt;Component&lt;/i&gt;&lt;/b&gt;&lt;br&gt;&lt;/font&gt;&lt;/p&gt;&lt;hr size=&quot;1&quot;&gt;&lt;p style=&quot;margin:0px;margin-left:4px;&quot;&gt;&lt;span style=&quot;background-color: initial;&quot;&gt;&lt;font&gt;+ name: String&lt;/font&gt;&lt;/span&gt;&lt;/p&gt;&lt;p style=&quot;margin:0px;margin-left:4px;&quot;&gt;&lt;span style=&quot;background-color: initial;&quot;&gt;&lt;font&gt;+ uuid: Uuid&lt;/font&gt;&lt;/span&gt;&lt;/p&gt;&lt;p style=&quot;margin:0px;margin-left:4px;&quot;&gt;&lt;span style=&quot;background-color: initial;&quot;&gt;&lt;font&gt;+ last_reading: NaiveDateTime&lt;/font&gt;&lt;/span&gt;&lt;/p&gt;" style="verticalAlign=top;align=left;overflow=fill;fontSize=12;fontFamily=Helvetica;html=1;whiteSpace=wrap;labelBackgroundColor=none;fillColor=#232136;strokeColor=#DB918D;fontColor=#FFFFFF;strokeWidth=3;" parent="N9ySa-mEWaRBu_4OoYGM-2" vertex="1">
          <mxGeometry x="488.1300000000001" y="251.69" width="185" height="90" as="geometry" />
        </mxCell>
        <mxCell id="ex1zAhzP3RsQWdwygTMw-9" style="edgeStyle=orthogonalEdgeStyle;shape=connector;rounded=1;orthogonalLoop=1;jettySize=auto;html=1;exitX=0.5;exitY=1;exitDx=0;exitDy=0;labelBackgroundColor=default;strokeColor=#DB918D;strokeWidth=3;align=center;verticalAlign=middle;fontFamily=Helvetica;fontSize=11;fontColor=#FFFFFF;endArrow=none;endFill=0;curved=0;" parent="N9ySa-mEWaRBu_4OoYGM-2" source="k4MrNBwa_ON_j0a-5Z7k-2" target="6oxuOz3wnvCVODKfcnTl-1" edge="1">
          <mxGeometry relative="1" as="geometry" />
        </mxCell>
        <mxCell id="k4MrNBwa_ON_j0a-5Z7k-2" value="&lt;p style=&quot;margin:0px;margin-top:4px;text-align:center;&quot;&gt;&lt;font&gt;&lt;i&gt;&amp;lt;&amp;lt;enumeration&amp;gt;&amp;gt;&lt;/i&gt;&lt;br&gt;&lt;b&gt;Status&lt;/b&gt;&lt;/font&gt;&lt;/p&gt;&lt;hr size=&quot;1&quot;&gt;&lt;p style=&quot;margin:0px;margin-left:4px;&quot;&gt;&lt;font&gt;&amp;nbsp; Coherent,&lt;/font&gt;&lt;/p&gt;&lt;p style=&quot;margin:0px;margin-left:4px;&quot;&gt;&lt;font&gt;&amp;nbsp; Degraded,&lt;/font&gt;&lt;/p&gt;&lt;p style=&quot;margin:0px;margin-left:4px;&quot;&gt;&lt;font&gt;&amp;nbsp; Critical,&lt;/font&gt;&lt;/p&gt;&lt;p style=&quot;margin:0px;margin-left:4px;&quot;&gt;&lt;font&gt;&amp;nbsp; Fault,&lt;/font&gt;&lt;/p&gt;&lt;p style=&quot;margin:0px;margin-left:4px;&quot;&gt;&lt;font&gt;&amp;nbsp; Uninitialized&lt;/font&gt;&lt;/p&gt;" style="verticalAlign=top;align=left;overflow=fill;fontSize=12;fontFamily=Helvetica;html=1;whiteSpace=wrap;strokeColor=#DB918D;fontColor=#FFFFFF;fillColor=#232136;labelBackgroundColor=none;strokeWidth=3;" parent="N9ySa-mEWaRBu_4OoYGM-2" vertex="1">
          <mxGeometry x="515.6300000000001" width="130" height="130" as="geometry" />
        </mxCell>
        <mxCell id="amVTd4cIFYr5nZaXsDXt-2" value="&lt;p style=&quot;margin:0px;margin-top:4px;text-align:center;&quot;&gt;&lt;font&gt;&lt;b&gt;SCMessage&lt;/b&gt;&lt;/font&gt;&lt;/p&gt;&lt;hr size=&quot;1&quot;&gt;&lt;p style=&quot;margin:0px;margin-left:4px;&quot;&gt;&lt;font&gt;+ device_uuid: Uuid&lt;/font&gt;&lt;/p&gt;&lt;p style=&quot;margin:0px;margin-left:4px;&quot;&gt;&lt;font&gt;+ topic: String&lt;/font&gt;&lt;/p&gt;&lt;p style=&quot;margin:0px;margin-left:4px;&quot;&gt;&lt;font&gt;+ timestamp: NaiveDateTime&lt;/font&gt;&lt;/p&gt;&lt;p style=&quot;margin:0px;margin-left:4px;&quot;&gt;&lt;font&gt;+ values: HashMap&amp;lt;String, Value&amp;gt;&lt;/font&gt;&lt;/p&gt;&lt;p style=&quot;margin:0px;margin-left:4px;&quot;&gt;&lt;font&gt;+ status: String&lt;/font&gt;&lt;/p&gt;&lt;p style=&quot;margin:0px;margin-left:4px;&quot;&gt;&lt;font&gt;+ alert: bool&lt;/font&gt;&lt;/p&gt;" style="verticalAlign=top;align=left;overflow=fill;fontSize=12;fontFamily=Helvetica;html=1;whiteSpace=wrap;strokeColor=#DB918D;fontColor=#FFFFFF;fillColor=#232136;labelBackgroundColor=none;strokeWidth=3;" parent="N9ySa-mEWaRBu_4OoYGM-2" vertex="1">
          <mxGeometry y="253.39" width="202.5" height="130" as="geometry" />
        </mxCell>
        <mxCell id="ex1zAhzP3RsQWdwygTMw-3" value="" style="edgeStyle=orthogonalEdgeStyle;shape=connector;rounded=1;orthogonalLoop=1;jettySize=auto;html=1;labelBackgroundColor=default;strokeColor=#DB918D;strokeWidth=3;align=center;verticalAlign=middle;fontFamily=Helvetica;fontSize=11;fontColor=#FFFFFF;endArrow=classic;endFill=1;curved=0;" parent="N9ySa-mEWaRBu_4OoYGM-2" source="bPzTSkkldETOd2Aa_31L-1" target="6oxuOz3wnvCVODKfcnTl-1" edge="1">
          <mxGeometry relative="1" as="geometry" />
        </mxCell>
        <mxCell id="ex1zAhzP3RsQWdwygTMw-10" style="edgeStyle=orthogonalEdgeStyle;shape=connector;rounded=1;orthogonalLoop=1;jettySize=auto;html=1;exitX=0.75;exitY=0;exitDx=0;exitDy=0;labelBackgroundColor=default;strokeColor=#DB918D;strokeWidth=3;align=center;verticalAlign=middle;fontFamily=Helvetica;fontSize=11;fontColor=#FFFFFF;endArrow=none;endFill=0;curved=0;" parent="N9ySa-mEWaRBu_4OoYGM-2" source="bPzTSkkldETOd2Aa_31L-1" target="k4MrNBwa_ON_j0a-5Z7k-2" edge="1">
          <mxGeometry relative="1" as="geometry">
            <Array as="points">
              <mxPoint x="374.25" y="213.39" />
              <mxPoint x="549.25" y="213.39" />
            </Array>
          </mxGeometry>
        </mxCell>
        <mxCell id="bPzTSkkldETOd2Aa_31L-1" value="&lt;p style=&quot;margin:0px;margin-top:4px;text-align:center;&quot;&gt;&lt;b&gt;&lt;i&gt;&lt;font&gt;DataRequirement&lt;/font&gt;&lt;/i&gt;&lt;/b&gt;&lt;/p&gt;&lt;hr size=&quot;1&quot;&gt;&lt;p style=&quot;margin:0px;margin-left:4px;&quot;&gt;&lt;font&gt;+ required: bool&lt;/font&gt;&lt;/p&gt;&lt;p style=&quot;margin:0px;margin-left:4px;&quot;&gt;&lt;font&gt;+ count: usize&lt;/font&gt;&lt;/p&gt;&lt;p style=&quot;margin:0px;margin-left:4px;&quot;&gt;&lt;font&gt;&lt;span style=&quot;background-color: initial;&quot;&gt;+ timeout: Option&amp;lt;Duration&amp;gt;&amp;nbsp;&lt;/span&gt;&lt;/font&gt;&lt;/p&gt;&lt;p style=&quot;margin:0px;margin-left:4px;&quot;&gt;&lt;br&gt;&lt;/p&gt;" style="verticalAlign=top;align=left;overflow=fill;fontSize=12;fontFamily=Helvetica;html=1;whiteSpace=wrap;labelBackgroundColor=none;fillColor=#232136;fontColor=#FFFFFF;strokeColor=#DB918D;strokeWidth=3;" parent="N9ySa-mEWaRBu_4OoYGM-2" vertex="1">
          <mxGeometry x="243.1300000000001" y="253.39" width="175" height="86.61" as="geometry" />
        </mxCell>
        <mxCell id="bPzTSkkldETOd2Aa_31L-2" value="&lt;p style=&quot;margin:0px;margin-top:4px;text-align:center;&quot;&gt;&lt;b&gt;&lt;font&gt;Application&lt;/font&gt;&lt;/b&gt;&lt;/p&gt;&lt;hr size=&quot;1&quot;&gt;&lt;p style=&quot;margin:0px;margin-left:4px;&quot;&gt;&lt;font&gt;+ name: String&lt;/font&gt;&lt;/p&gt;&lt;p style=&quot;margin:0px;margin-left:4px;&quot;&gt;&lt;font&gt;&lt;span style=&quot;background-color: initial;&quot;&gt;+&amp;nbsp;description: String&lt;/span&gt;&lt;br&gt;&lt;/font&gt;&lt;/p&gt;&lt;p style=&quot;margin:0px;margin-left:4px;&quot;&gt;&lt;span style=&quot;background-color: initial;&quot;&gt;&lt;font&gt;+ last_update: NaiveDateTime&lt;/font&gt;&lt;/span&gt;&lt;/p&gt;&lt;p style=&quot;margin:0px;margin-left:4px;&quot;&gt;&lt;br&gt;&lt;/p&gt;" style="verticalAlign=top;align=left;overflow=fill;fontSize=12;fontFamily=Helvetica;html=1;whiteSpace=wrap;labelBackgroundColor=none;fillColor=#232136;strokeColor=#DB918D;fontColor=#FFFFFF;strokeWidth=3;" parent="N9ySa-mEWaRBu_4OoYGM-2" vertex="1">
          <mxGeometry x="11.25" y="113.38999999999999" width="180" height="90.52" as="geometry" />
        </mxCell>
        <mxCell id="ex1zAhzP3RsQWdwygTMw-8" style="edgeStyle=orthogonalEdgeStyle;shape=connector;rounded=1;orthogonalLoop=1;jettySize=auto;html=1;exitX=0.5;exitY=0;exitDx=0;exitDy=0;entryX=0;entryY=0.378;entryDx=0;entryDy=0;labelBackgroundColor=default;strokeColor=#DB918D;strokeWidth=3;align=center;verticalAlign=middle;fontFamily=Helvetica;fontSize=11;fontColor=#FFFFFF;endArrow=none;endFill=0;curved=0;entryPerimeter=0;startArrow=none;startFill=0;" parent="N9ySa-mEWaRBu_4OoYGM-2" source="bPzTSkkldETOd2Aa_31L-2" target="k4MrNBwa_ON_j0a-5Z7k-2" edge="1">
          <mxGeometry relative="1" as="geometry" />
        </mxCell>
        <mxCell id="ex1zAhzP3RsQWdwygTMw-6" style="edgeStyle=orthogonalEdgeStyle;shape=connector;rounded=0;orthogonalLoop=1;jettySize=auto;html=1;labelBackgroundColor=default;strokeColor=#DB918D;strokeWidth=3;align=center;verticalAlign=middle;fontFamily=Helvetica;fontSize=11;fontColor=#FFFFFF;endArrow=none;endFill=0;" parent="N9ySa-mEWaRBu_4OoYGM-2" source="amVTd4cIFYr5nZaXsDXt-2" target="bPzTSkkldETOd2Aa_31L-2" edge="1">
          <mxGeometry relative="1" as="geometry" />
        </mxCell>
        <mxCell id="ex1zAhzP3RsQWdwygTMw-4" value="" style="edgeStyle=orthogonalEdgeStyle;shape=connector;rounded=1;orthogonalLoop=1;jettySize=auto;html=1;labelBackgroundColor=default;strokeColor=#DB918D;strokeWidth=3;align=center;verticalAlign=middle;fontFamily=Helvetica;fontSize=11;fontColor=#FFFFFF;endArrow=classic;endFill=1;curved=0;" parent="N9ySa-mEWaRBu_4OoYGM-2" source="bPzTSkkldETOd2Aa_31L-5" target="bPzTSkkldETOd2Aa_31L-1" edge="1">
          <mxGeometry relative="1" as="geometry" />
        </mxCell>
        <mxCell id="bPzTSkkldETOd2Aa_31L-5" value="&lt;p style=&quot;margin:0px;margin-top:4px;text-align:center;&quot;&gt;&lt;b&gt;&lt;font&gt;Location&lt;/font&gt;&lt;/b&gt;&lt;/p&gt;&lt;hr size=&quot;1&quot;&gt;&lt;p style=&quot;margin:0px;margin-left:4px;&quot;&gt;&lt;span style=&quot;background-color: initial;&quot;&gt;+ name: String&lt;/span&gt;&lt;br&gt;&lt;/p&gt;&lt;p style=&quot;margin:0px;margin-left:4px;&quot;&gt;&lt;span style=&quot;background-color: initial;&quot;&gt;+ ip: Option&amp;lt;IdAdrr&amp;gt;&lt;/span&gt;&lt;/p&gt;&lt;p style=&quot;margin:0px;margin-left:4px;&quot;&gt;&lt;br&gt;&lt;/p&gt;" style="verticalAlign=top;align=left;overflow=fill;fontSize=12;fontFamily=Helvetica;html=1;whiteSpace=wrap;labelBackgroundColor=none;fillColor=#232136;strokeColor=#DB918D;fontColor=#FFFFFF;strokeWidth=3;" parent="N9ySa-mEWaRBu_4OoYGM-2" vertex="1">
          <mxGeometry x="266.25" y="123.26999999999998" width="130" height="70.77" as="geometry" />
        </mxCell>
        <mxCell id="ultGdkTZjcFe20rOqxWl-4" style="edgeStyle=orthogonalEdgeStyle;shape=connector;curved=0;rounded=1;orthogonalLoop=1;jettySize=auto;html=1;exitX=0.25;exitY=0;exitDx=0;exitDy=0;entryX=0.007;entryY=0.606;entryDx=0;entryDy=0;entryPerimeter=0;labelBackgroundColor=default;strokeColor=#DB918D;strokeWidth=3;align=center;verticalAlign=middle;fontFamily=Helvetica;fontSize=11;fontColor=#FFFFFF;endArrow=none;endFill=0;" parent="N9ySa-mEWaRBu_4OoYGM-2" source="bPzTSkkldETOd2Aa_31L-5" target="k4MrNBwa_ON_j0a-5Z7k-2" edge="1">
          <mxGeometry relative="1" as="geometry" />
        </mxCell>
        <mxCell id="bPzTSkkldETOd2Aa_31L-8" style="edgeStyle=orthogonalEdgeStyle;rounded=0;orthogonalLoop=1;jettySize=auto;html=1;strokeWidth=3;endArrow=classic;endFill=1;strokeColor=#DB918D;fontColor=#FFFFFF;" parent="N9ySa-mEWaRBu_4OoYGM-2" source="bPzTSkkldETOd2Aa_31L-2" target="bPzTSkkldETOd2Aa_31L-5" edge="1">
          <mxGeometry relative="1" as="geometry" />
        </mxCell>
        <mxCell id="bPzTSkkldETOd2Aa_31L-6" value="&lt;p style=&quot;margin:0px;margin-top:4px;text-align:center;&quot;&gt;&lt;font&gt;&lt;i&gt;&amp;lt;&amp;lt;enumeration&amp;gt;&amp;gt;&lt;/i&gt;&lt;br&gt;&lt;b&gt;IoTOutput&lt;/b&gt;&lt;/font&gt;&lt;/p&gt;&lt;hr size=&quot;1&quot;&gt;&lt;p style=&quot;margin:0px;margin-left:4px;&quot;&gt;&lt;font&gt;&amp;nbsp; Number,&lt;/font&gt;&lt;/p&gt;&lt;p style=&quot;margin:0px;margin-left:4px;&quot;&gt;&lt;font&gt;&amp;nbsp; Boolean,&lt;/font&gt;&lt;/p&gt;&lt;p style=&quot;margin:0px;margin-left:4px;&quot;&gt;&lt;font&gt;&amp;nbsp; Text,&lt;/font&gt;&lt;/p&gt;&lt;p style=&quot;margin:0px;margin-left:4px;&quot;&gt;&lt;font&gt;&amp;nbsp; Invalid&lt;/font&gt;&lt;/p&gt;" style="verticalAlign=top;align=left;overflow=fill;fontSize=12;fontFamily=Helvetica;html=1;whiteSpace=wrap;strokeColor=#DB918D;fontColor=#FFFFFF;fillColor=#232136;labelBackgroundColor=none;strokeWidth=3;" parent="N9ySa-mEWaRBu_4OoYGM-2" vertex="1">
          <mxGeometry x="265.6300000000001" y="383.39" width="130" height="106.61" as="geometry" />
        </mxCell>
        <mxCell id="ex1zAhzP3RsQWdwygTMw-5" style="edgeStyle=orthogonalEdgeStyle;shape=connector;rounded=0;orthogonalLoop=1;jettySize=auto;html=1;labelBackgroundColor=default;strokeColor=#DB918D;strokeWidth=3;align=center;verticalAlign=middle;fontFamily=Helvetica;fontSize=11;fontColor=#FFFFFF;endArrow=none;endFill=0;" parent="N9ySa-mEWaRBu_4OoYGM-2" source="bPzTSkkldETOd2Aa_31L-1" target="bPzTSkkldETOd2Aa_31L-6" edge="1">
          <mxGeometry relative="1" as="geometry" />
        </mxCell>
        <mxCell id="bPzTSkkldETOd2Aa_31L-9" style="edgeStyle=orthogonalEdgeStyle;shape=connector;rounded=1;orthogonalLoop=1;jettySize=auto;html=1;exitX=0.5;exitY=0;exitDx=0;exitDy=0;entryX=1;entryY=0.5;entryDx=0;entryDy=0;labelBackgroundColor=default;strokeColor=#DB918D;strokeWidth=3;align=center;verticalAlign=middle;fontFamily=Helvetica;fontSize=11;fontColor=#FFFFFF;endArrow=diamondThin;endFill=0;curved=0;endSize=15;startSize=10;" parent="N9ySa-mEWaRBu_4OoYGM-2" source="bPzTSkkldETOd2Aa_31L-5" target="bPzTSkkldETOd2Aa_31L-5" edge="1">
          <mxGeometry relative="1" as="geometry">
            <Array as="points">
              <mxPoint x="331.25" y="103.38999999999999" />
              <mxPoint x="426.25" y="103.38999999999999" />
              <mxPoint x="426.25" y="158.39" />
            </Array>
          </mxGeometry>
        </mxCell>
        <mxCell id="ultGdkTZjcFe20rOqxWl-5" value="&lt;font&gt;Consumes&lt;/font&gt;" style="text;html=1;strokeColor=none;fillColor=none;align=center;verticalAlign=middle;whiteSpace=wrap;rounded=0;fontSize=11;fontFamily=Helvetica;fontColor=#FFFFFF;" parent="N9ySa-mEWaRBu_4OoYGM-2" vertex="1">
          <mxGeometry x="106.13000000000011" y="213.39" width="60" height="30" as="geometry" />
        </mxCell>
        <mxCell id="ultGdkTZjcFe20rOqxWl-10" value="&lt;font&gt;Has many&lt;/font&gt;" style="text;html=1;strokeColor=none;fillColor=none;align=center;verticalAlign=middle;whiteSpace=wrap;rounded=0;fontSize=11;fontFamily=Helvetica;fontColor=#FFFFFF;" parent="N9ySa-mEWaRBu_4OoYGM-2" vertex="1">
          <mxGeometry x="355" y="80.38999999999999" width="60" height="30" as="geometry" />
        </mxCell>
        <mxCell id="ultGdkTZjcFe20rOqxWl-12" value="&lt;font&gt;1&lt;/font&gt;" style="text;html=1;strokeColor=none;fillColor=none;align=center;verticalAlign=middle;whiteSpace=wrap;rounded=0;fontSize=11;fontFamily=Helvetica;fontColor=#FFFFFF;" parent="N9ySa-mEWaRBu_4OoYGM-2" vertex="1">
          <mxGeometry x="59.000000000000114" y="83.39" width="60" height="30" as="geometry" />
        </mxCell>
        <mxCell id="ultGdkTZjcFe20rOqxWl-13" value="&lt;font&gt;1&lt;/font&gt;" style="text;html=1;strokeColor=none;fillColor=none;align=center;verticalAlign=middle;whiteSpace=wrap;rounded=0;fontSize=11;fontFamily=Helvetica;fontColor=#FFFFFF;" parent="N9ySa-mEWaRBu_4OoYGM-2" vertex="1">
          <mxGeometry x="474" y="22" width="60" height="30" as="geometry" />
        </mxCell>
        <mxCell id="ultGdkTZjcFe20rOqxWl-15" value="&lt;font&gt;1&lt;/font&gt;" style="text;html=1;strokeColor=none;fillColor=none;align=center;verticalAlign=middle;whiteSpace=wrap;rounded=0;fontSize=11;fontFamily=Helvetica;fontColor=#FFFFFF;" parent="N9ySa-mEWaRBu_4OoYGM-2" vertex="1">
          <mxGeometry x="474" y="53.389999999999986" width="60" height="30" as="geometry" />
        </mxCell>
        <mxCell id="ultGdkTZjcFe20rOqxWl-16" value="&lt;font&gt;1&lt;/font&gt;" style="text;html=1;strokeColor=none;fillColor=none;align=center;verticalAlign=middle;whiteSpace=wrap;rounded=0;fontSize=11;fontFamily=Helvetica;fontColor=#FFFFFF;" parent="N9ySa-mEWaRBu_4OoYGM-2" vertex="1">
          <mxGeometry x="295" y="96.27" width="60" height="30" as="geometry" />
        </mxCell>
        <mxCell id="ultGdkTZjcFe20rOqxWl-18" value="&lt;font&gt;*&lt;br&gt;&lt;/font&gt;" style="text;html=1;strokeColor=none;fillColor=none;align=center;verticalAlign=middle;whiteSpace=wrap;rounded=0;fontSize=11;fontFamily=Helvetica;fontColor=#FFFFFF;" parent="N9ySa-mEWaRBu_4OoYGM-2" vertex="1">
          <mxGeometry x="378" y="160" width="60" height="30" as="geometry" />
        </mxCell>
        <mxCell id="ultGdkTZjcFe20rOqxWl-19" value="&lt;font&gt;1&lt;/font&gt;" style="text;html=1;strokeColor=none;fillColor=none;align=center;verticalAlign=middle;whiteSpace=wrap;rounded=0;fontSize=11;fontFamily=Helvetica;fontColor=#FFFFFF;" parent="N9ySa-mEWaRBu_4OoYGM-2" vertex="1">
          <mxGeometry x="510" y="126.26999999999998" width="60" height="30" as="geometry" />
        </mxCell>
        <mxCell id="ultGdkTZjcFe20rOqxWl-20" value="&lt;font&gt;1&lt;/font&gt;" style="text;html=1;strokeColor=none;fillColor=none;align=center;verticalAlign=middle;whiteSpace=wrap;rounded=0;fontSize=11;fontFamily=Helvetica;fontColor=#FFFFFF;" parent="N9ySa-mEWaRBu_4OoYGM-2" vertex="1">
          <mxGeometry x="337.25" y="227.39" width="60" height="30" as="geometry" />
        </mxCell>
        <mxCell id="ultGdkTZjcFe20rOqxWl-21" value="&lt;font&gt;1&lt;/font&gt;" style="text;html=1;strokeColor=none;fillColor=none;align=center;verticalAlign=middle;whiteSpace=wrap;rounded=0;fontSize=11;fontFamily=Helvetica;fontColor=#FFFFFF;" parent="N9ySa-mEWaRBu_4OoYGM-2" vertex="1">
          <mxGeometry x="259" y="96.27" width="60" height="30" as="geometry" />
        </mxCell>
        <mxCell id="ultGdkTZjcFe20rOqxWl-22" value="&lt;font&gt;1&lt;/font&gt;" style="text;html=1;strokeColor=none;fillColor=none;align=center;verticalAlign=middle;whiteSpace=wrap;rounded=0;fontSize=11;fontFamily=Helvetica;fontColor=#FFFFFF;" parent="N9ySa-mEWaRBu_4OoYGM-2" vertex="1">
          <mxGeometry x="172" y="133.26999999999998" width="60" height="30" as="geometry" />
        </mxCell>
        <mxCell id="ultGdkTZjcFe20rOqxWl-27" value="&lt;font&gt;1&lt;/font&gt;" style="text;html=1;strokeColor=none;fillColor=none;align=center;verticalAlign=middle;whiteSpace=wrap;rounded=0;fontSize=11;fontFamily=Helvetica;fontColor=#FFFFFF;" parent="N9ySa-mEWaRBu_4OoYGM-2" vertex="1">
          <mxGeometry x="560" y="126.99999999999997" width="60" height="30" as="geometry" />
        </mxCell>
        <mxCell id="ultGdkTZjcFe20rOqxWl-28" value="&lt;font&gt;1&lt;/font&gt;" style="text;html=1;strokeColor=none;fillColor=none;align=center;verticalAlign=middle;whiteSpace=wrap;rounded=0;fontSize=11;fontFamily=Helvetica;fontColor=#FFFFFF;" parent="N9ySa-mEWaRBu_4OoYGM-2" vertex="1">
          <mxGeometry x="560" y="216.39" width="60" height="30" as="geometry" />
        </mxCell>
        <mxCell id="ultGdkTZjcFe20rOqxWl-30" value="&lt;font&gt;1&lt;/font&gt;" style="text;html=1;strokeColor=none;fillColor=none;align=center;verticalAlign=middle;whiteSpace=wrap;rounded=0;fontSize=11;fontFamily=Helvetica;fontColor=#FFFFFF;" parent="N9ySa-mEWaRBu_4OoYGM-2" vertex="1">
          <mxGeometry x="309" y="333.39" width="60" height="30" as="geometry" />
        </mxCell>
        <mxCell id="ultGdkTZjcFe20rOqxWl-32" value="&lt;font&gt;Has&lt;/font&gt;" style="text;html=1;strokeColor=none;fillColor=none;align=center;verticalAlign=middle;whiteSpace=wrap;rounded=0;fontSize=11;fontFamily=Helvetica;fontColor=#FFFFFF;" parent="N9ySa-mEWaRBu_4OoYGM-2" vertex="1">
          <mxGeometry x="309" y="23.389999999999986" width="60" height="30" as="geometry" />
        </mxCell>
        <mxCell id="ultGdkTZjcFe20rOqxWl-33" value="&lt;font&gt;Has&lt;/font&gt;" style="text;html=1;strokeColor=none;fillColor=none;align=center;verticalAlign=middle;whiteSpace=wrap;rounded=0;fontSize=11;fontFamily=Helvetica;fontColor=#FFFFFF;" parent="N9ySa-mEWaRBu_4OoYGM-2" vertex="1">
          <mxGeometry x="565" y="169.26999999999998" width="60" height="30" as="geometry" />
        </mxCell>
        <mxCell id="ultGdkTZjcFe20rOqxWl-35" value="&lt;font&gt;Has&lt;/font&gt;" style="text;html=1;strokeColor=none;fillColor=none;align=center;verticalAlign=middle;whiteSpace=wrap;rounded=0;fontSize=11;fontFamily=Helvetica;fontColor=#FFFFFF;" parent="N9ySa-mEWaRBu_4OoYGM-2" vertex="1">
          <mxGeometry x="355" y="54" width="60" height="30" as="geometry" />
        </mxCell>
        <mxCell id="ultGdkTZjcFe20rOqxWl-36" value="&lt;font&gt;Has&lt;/font&gt;" style="text;html=1;strokeColor=none;fillColor=none;align=center;verticalAlign=middle;whiteSpace=wrap;rounded=0;fontSize=11;fontFamily=Helvetica;fontColor=#FFFFFF;" parent="N9ySa-mEWaRBu_4OoYGM-2" vertex="1">
          <mxGeometry x="438" y="190" width="60" height="30" as="geometry" />
        </mxCell>
      </root>
    </mxGraphModel>
  </diagram>
</mxfile>
